<mxfile host="app.diagrams.net" agent="Mozilla/5.0 (Windows NT 10.0; Win64; x64) AppleWebKit/537.36 (KHTML, like Gecko) Chrome/129.0.0.0 Safari/537.36" version="24.7.17">
  <diagram name="Page-1" id="CLlneZ40QcNzZ37yAoJ6">
    <mxGraphModel dx="6450" dy="3265" grid="1" gridSize="10" guides="1" tooltips="1" connect="1" arrows="1" fold="1" page="1" pageScale="1" pageWidth="850" pageHeight="1100" math="0" shadow="0">
      <root>
        <mxCell id="0" />
        <mxCell id="1" parent="0" />
        <mxCell id="etK1-6Y7ytb_AL0YdH5e-2" value="&lt;font style=&quot;font-size: 16px;&quot;&gt;BOOK&lt;/font&gt;" style="rounded=0;whiteSpace=wrap;html=1;fontSize=16;" parent="1" vertex="1">
          <mxGeometry x="-2720" y="-890" width="150" height="60" as="geometry" />
        </mxCell>
        <mxCell id="etK1-6Y7ytb_AL0YdH5e-3" value="&lt;u style=&quot;font-size: 16px;&quot;&gt;&lt;font style=&quot;font-size: 16px;&quot;&gt;book_id&lt;/font&gt;&lt;/u&gt;" style="ellipse;whiteSpace=wrap;html=1;fontSize=16;" parent="1" vertex="1">
          <mxGeometry x="-2900" y="-970" width="110" height="65" as="geometry" />
        </mxCell>
        <mxCell id="X86Ci_hZSHLNlB6S4itW-1" value="" style="endArrow=none;html=1;rounded=0;fontSize=16;" parent="1" source="etK1-6Y7ytb_AL0YdH5e-3" target="etK1-6Y7ytb_AL0YdH5e-2" edge="1">
          <mxGeometry width="50" height="50" relative="1" as="geometry">
            <mxPoint x="-2868.49" y="-830" as="sourcePoint" />
            <mxPoint x="-2818.49" y="-880" as="targetPoint" />
          </mxGeometry>
        </mxCell>
        <mxCell id="X86Ci_hZSHLNlB6S4itW-2" value="&lt;font style=&quot;font-size: 16px;&quot;&gt;title&lt;/font&gt;" style="ellipse;whiteSpace=wrap;html=1;fontSize=16;" parent="1" vertex="1">
          <mxGeometry x="-2773.25" y="-1005" width="106.51" height="50" as="geometry" />
        </mxCell>
        <mxCell id="X86Ci_hZSHLNlB6S4itW-3" value="" style="endArrow=none;html=1;rounded=0;fontSize=16;" parent="1" source="X86Ci_hZSHLNlB6S4itW-2" target="etK1-6Y7ytb_AL0YdH5e-2" edge="1">
          <mxGeometry width="50" height="50" relative="1" as="geometry">
            <mxPoint x="-2777.49" y="-979" as="sourcePoint" />
            <mxPoint x="-2698.49" y="-920" as="targetPoint" />
          </mxGeometry>
        </mxCell>
        <mxCell id="X86Ci_hZSHLNlB6S4itW-4" value="&lt;span style=&quot;font-size: 16px;&quot;&gt;price&lt;/span&gt;" style="ellipse;whiteSpace=wrap;html=1;fontSize=16;" parent="1" vertex="1">
          <mxGeometry x="-2580" y="-995" width="100" height="65" as="geometry" />
        </mxCell>
        <mxCell id="X86Ci_hZSHLNlB6S4itW-9" value="" style="endArrow=none;html=1;rounded=0;fontSize=16;" parent="1" source="X86Ci_hZSHLNlB6S4itW-4" target="etK1-6Y7ytb_AL0YdH5e-2" edge="1">
          <mxGeometry width="50" height="50" relative="1" as="geometry">
            <mxPoint x="-2678.49" y="-1010" as="sourcePoint" />
            <mxPoint x="-2660.49" y="-920" as="targetPoint" />
          </mxGeometry>
        </mxCell>
        <mxCell id="X86Ci_hZSHLNlB6S4itW-12" value="&lt;font style=&quot;font-size: 16px;&quot;&gt;AUTHOR&lt;/font&gt;" style="rounded=0;whiteSpace=wrap;html=1;fontSize=16;" parent="1" vertex="1">
          <mxGeometry x="-2730" y="-1340" width="150" height="60" as="geometry" />
        </mxCell>
        <mxCell id="MzxTkG-mtZ2UojvQ5B0x-26" style="edgeStyle=none;shape=connector;rounded=0;orthogonalLoop=1;jettySize=auto;html=1;strokeColor=default;align=center;verticalAlign=middle;fontFamily=Helvetica;fontSize=11;fontColor=default;labelBackgroundColor=default;endArrow=none;" parent="1" target="MzxTkG-mtZ2UojvQ5B0x-25" edge="1">
          <mxGeometry relative="1" as="geometry">
            <mxPoint x="-1790" y="-850" as="sourcePoint" />
          </mxGeometry>
        </mxCell>
        <mxCell id="X86Ci_hZSHLNlB6S4itW-13" value="&lt;font style=&quot;font-size: 16px;&quot;&gt;PUBLISHER&lt;/font&gt;" style="rounded=0;whiteSpace=wrap;html=1;fontSize=16;" parent="1" vertex="1">
          <mxGeometry x="-1975" y="-890" width="200" height="60" as="geometry" />
        </mxCell>
        <mxCell id="MzxTkG-mtZ2UojvQ5B0x-29" style="edgeStyle=none;shape=connector;rounded=0;orthogonalLoop=1;jettySize=auto;html=1;strokeColor=default;align=center;verticalAlign=middle;fontFamily=Helvetica;fontSize=11;fontColor=default;labelBackgroundColor=default;endArrow=none;" parent="1" source="X86Ci_hZSHLNlB6S4itW-14" target="MzxTkG-mtZ2UojvQ5B0x-28" edge="1">
          <mxGeometry relative="1" as="geometry" />
        </mxCell>
        <mxCell id="X86Ci_hZSHLNlB6S4itW-14" value="&lt;font style=&quot;font-size: 16px;&quot;&gt;GENRE&lt;/font&gt;" style="rounded=0;whiteSpace=wrap;html=1;fontSize=16;" parent="1" vertex="1">
          <mxGeometry x="-3470" y="-890" width="150" height="60" as="geometry" />
        </mxCell>
        <mxCell id="X86Ci_hZSHLNlB6S4itW-19" value="&lt;u style=&quot;font-size: 16px;&quot;&gt;&lt;font style=&quot;font-size: 16px;&quot;&gt;author_id&lt;/font&gt;&lt;/u&gt;" style="ellipse;whiteSpace=wrap;html=1;fontSize=16;" parent="1" vertex="1">
          <mxGeometry x="-2893.25" y="-1430" width="120" height="60" as="geometry" />
        </mxCell>
        <mxCell id="X86Ci_hZSHLNlB6S4itW-20" value="author_name" style="ellipse;whiteSpace=wrap;html=1;fontSize=16;" parent="1" vertex="1">
          <mxGeometry x="-2705" y="-1480" width="120" height="60" as="geometry" />
        </mxCell>
        <mxCell id="X86Ci_hZSHLNlB6S4itW-21" value="&lt;font style=&quot;font-size: 16px;&quot;&gt;author_dob&lt;/font&gt;" style="ellipse;whiteSpace=wrap;html=1;fontSize=16;" parent="1" vertex="1">
          <mxGeometry x="-2540" y="-1410" width="120" height="60" as="geometry" />
        </mxCell>
        <mxCell id="X86Ci_hZSHLNlB6S4itW-22" value="" style="endArrow=none;html=1;rounded=0;fontSize=16;" parent="1" source="X86Ci_hZSHLNlB6S4itW-19" target="X86Ci_hZSHLNlB6S4itW-12" edge="1">
          <mxGeometry width="50" height="50" relative="1" as="geometry">
            <mxPoint x="-1931.51" y="-1080" as="sourcePoint" />
            <mxPoint x="-1991.51" y="-1065" as="targetPoint" />
          </mxGeometry>
        </mxCell>
        <mxCell id="X86Ci_hZSHLNlB6S4itW-24" value="" style="endArrow=none;html=1;rounded=0;fontSize=16;" parent="1" source="X86Ci_hZSHLNlB6S4itW-20" target="X86Ci_hZSHLNlB6S4itW-12" edge="1">
          <mxGeometry width="50" height="50" relative="1" as="geometry">
            <mxPoint x="-1891.51" y="-920" as="sourcePoint" />
            <mxPoint x="-1801.51" y="-850" as="targetPoint" />
          </mxGeometry>
        </mxCell>
        <mxCell id="X86Ci_hZSHLNlB6S4itW-25" value="" style="endArrow=none;html=1;rounded=0;fontSize=16;" parent="1" source="X86Ci_hZSHLNlB6S4itW-21" target="X86Ci_hZSHLNlB6S4itW-12" edge="1">
          <mxGeometry width="50" height="50" relative="1" as="geometry">
            <mxPoint x="-1721.51" y="-930" as="sourcePoint" />
            <mxPoint x="-1724.51" y="-880" as="targetPoint" />
          </mxGeometry>
        </mxCell>
        <mxCell id="X86Ci_hZSHLNlB6S4itW-26" value="&lt;span style=&quot;font-size: 16px;&quot;&gt;&lt;u style=&quot;font-size: 16px;&quot;&gt;pu_id&lt;/u&gt;&lt;/span&gt;" style="ellipse;whiteSpace=wrap;html=1;fontSize=16;" parent="1" vertex="1">
          <mxGeometry x="-2200" y="-1037.5" width="170" height="70" as="geometry" />
        </mxCell>
        <mxCell id="X86Ci_hZSHLNlB6S4itW-27" value="" style="endArrow=none;html=1;rounded=0;fontSize=16;" parent="1" source="X86Ci_hZSHLNlB6S4itW-26" target="X86Ci_hZSHLNlB6S4itW-13" edge="1">
          <mxGeometry width="50" height="50" relative="1" as="geometry">
            <mxPoint x="-2801.75" y="-1750" as="sourcePoint" />
            <mxPoint x="-2711.75" y="-1680" as="targetPoint" />
          </mxGeometry>
        </mxCell>
        <mxCell id="X86Ci_hZSHLNlB6S4itW-28" value="&lt;font style=&quot;font-size: 16px;&quot;&gt;pu_name&lt;/font&gt;" style="ellipse;whiteSpace=wrap;html=1;fontSize=16;" parent="1" vertex="1">
          <mxGeometry x="-1980" y="-1042.5" width="150" height="80" as="geometry" />
        </mxCell>
        <mxCell id="X86Ci_hZSHLNlB6S4itW-29" value="&lt;font style=&quot;font-size: 16px;&quot;&gt;&lt;u style=&quot;font-size: 16px;&quot;&gt;gen_id&lt;/u&gt;&lt;/font&gt;" style="ellipse;whiteSpace=wrap;html=1;fontSize=16;" parent="1" vertex="1">
          <mxGeometry x="-3580" y="-980" width="120" height="60" as="geometry" />
        </mxCell>
        <mxCell id="X86Ci_hZSHLNlB6S4itW-30" value="&lt;span style=&quot;font-size: 16px;&quot;&gt;pu_phone_number&lt;/span&gt;" style="ellipse;whiteSpace=wrap;html=1;fontSize=16;" parent="1" vertex="1">
          <mxGeometry x="-1790" y="-995" width="265" height="80" as="geometry" />
        </mxCell>
        <mxCell id="X86Ci_hZSHLNlB6S4itW-33" value="" style="endArrow=none;html=1;rounded=0;fontSize=16;" parent="1" source="X86Ci_hZSHLNlB6S4itW-28" target="X86Ci_hZSHLNlB6S4itW-13" edge="1">
          <mxGeometry width="50" height="50" relative="1" as="geometry">
            <mxPoint x="-2776.75" y="-1370" as="sourcePoint" />
            <mxPoint x="-2721.75" y="-1390" as="targetPoint" />
          </mxGeometry>
        </mxCell>
        <mxCell id="X86Ci_hZSHLNlB6S4itW-34" value="" style="endArrow=none;html=1;rounded=0;fontSize=16;" parent="1" source="X86Ci_hZSHLNlB6S4itW-30" target="X86Ci_hZSHLNlB6S4itW-13" edge="1">
          <mxGeometry width="50" height="50" relative="1" as="geometry">
            <mxPoint x="-2060" y="-450" as="sourcePoint" />
            <mxPoint x="-2631.75" y="-1280" as="targetPoint" />
          </mxGeometry>
        </mxCell>
        <mxCell id="X86Ci_hZSHLNlB6S4itW-35" value="" style="endArrow=none;html=1;rounded=0;fontSize=16;" parent="1" source="X86Ci_hZSHLNlB6S4itW-29" target="X86Ci_hZSHLNlB6S4itW-14" edge="1">
          <mxGeometry width="50" height="50" relative="1" as="geometry">
            <mxPoint x="-3430" y="-1155" as="sourcePoint" />
            <mxPoint x="-3490" y="-1140" as="targetPoint" />
          </mxGeometry>
        </mxCell>
        <mxCell id="X86Ci_hZSHLNlB6S4itW-36" value="&lt;font style=&quot;font-size: 16px;&quot;&gt;description&lt;/font&gt;" style="ellipse;whiteSpace=wrap;html=1;fontSize=16;" parent="1" vertex="1">
          <mxGeometry x="-3310" y="-955" width="150" height="60" as="geometry" />
        </mxCell>
        <mxCell id="X86Ci_hZSHLNlB6S4itW-44" value="&lt;font style=&quot;font-size: 16px;&quot;&gt;WRITE&lt;/font&gt;" style="shape=rhombus;perimeter=rhombusPerimeter;whiteSpace=wrap;html=1;align=center;fontSize=16;" parent="1" vertex="1">
          <mxGeometry x="-2770" y="-1200" width="230" height="100" as="geometry" />
        </mxCell>
        <mxCell id="X86Ci_hZSHLNlB6S4itW-37" value="" style="endArrow=none;html=1;rounded=0;fontSize=16;" parent="1" source="X86Ci_hZSHLNlB6S4itW-36" target="X86Ci_hZSHLNlB6S4itW-14" edge="1">
          <mxGeometry width="50" height="50" relative="1" as="geometry">
            <mxPoint x="-3510" y="-937" as="sourcePoint" />
            <mxPoint x="-3450" y="-865" as="targetPoint" />
          </mxGeometry>
        </mxCell>
        <mxCell id="X86Ci_hZSHLNlB6S4itW-46" value="" style="endArrow=none;html=1;rounded=0;fontSize=16;" parent="1" source="X86Ci_hZSHLNlB6S4itW-12" target="X86Ci_hZSHLNlB6S4itW-44" edge="1">
          <mxGeometry relative="1" as="geometry">
            <mxPoint x="-2250" y="-680" as="sourcePoint" />
            <mxPoint x="-2090" y="-680" as="targetPoint" />
          </mxGeometry>
        </mxCell>
        <mxCell id="X86Ci_hZSHLNlB6S4itW-47" value="1" style="resizable=0;html=1;whiteSpace=wrap;align=right;verticalAlign=bottom;fontSize=16;" parent="X86Ci_hZSHLNlB6S4itW-46" connectable="0" vertex="1">
          <mxGeometry x="1" relative="1" as="geometry" />
        </mxCell>
        <mxCell id="X86Ci_hZSHLNlB6S4itW-48" value="" style="shape=link;html=1;rounded=0;fontSize=16;" parent="1" source="etK1-6Y7ytb_AL0YdH5e-2" target="X86Ci_hZSHLNlB6S4itW-44" edge="1">
          <mxGeometry relative="1" as="geometry">
            <mxPoint x="-2510" y="-630" as="sourcePoint" />
            <mxPoint x="-2350" y="-630" as="targetPoint" />
          </mxGeometry>
        </mxCell>
        <mxCell id="X86Ci_hZSHLNlB6S4itW-49" value="N" style="resizable=0;html=1;whiteSpace=wrap;align=right;verticalAlign=bottom;fontSize=16;" parent="X86Ci_hZSHLNlB6S4itW-48" connectable="0" vertex="1">
          <mxGeometry x="1" relative="1" as="geometry" />
        </mxCell>
        <mxCell id="Zm254rGA1JH3abEI71Ci-17" value="" style="endArrow=none;html=1;rounded=0;fontSize=16;" parent="1" source="MzxTkG-mtZ2UojvQ5B0x-8" target="Zm254rGA1JH3abEI71Ci-15" edge="1">
          <mxGeometry relative="1" as="geometry">
            <mxPoint x="-3507.2274625513082" y="-600" as="sourcePoint" />
            <mxPoint x="-3294.1925" y="-480" as="targetPoint" />
          </mxGeometry>
        </mxCell>
        <mxCell id="Zm254rGA1JH3abEI71Ci-15" value="&lt;span style=&quot;font-size: 16px;&quot;&gt;&lt;span style=&quot;font-size: 16px;&quot;&gt;order_time&lt;/span&gt;&lt;/span&gt;" style="ellipse;whiteSpace=wrap;html=1;fontSize=16;" parent="1" vertex="1">
          <mxGeometry x="-3650" y="-660" width="105" height="60" as="geometry" />
        </mxCell>
        <mxCell id="Vw9iUM8nYpeJwZ6kVrFT-1" value="&lt;font style=&quot;font-size: 16px;&quot;&gt;PUBLISH&lt;/font&gt;" style="shape=rhombus;perimeter=rhombusPerimeter;whiteSpace=wrap;html=1;align=center;fontSize=16;" parent="1" vertex="1">
          <mxGeometry x="-2410" y="-910" width="230" height="100" as="geometry" />
        </mxCell>
        <mxCell id="Vw9iUM8nYpeJwZ6kVrFT-4" value="" style="endArrow=none;html=1;rounded=0;fontSize=16;" parent="1" source="X86Ci_hZSHLNlB6S4itW-13" target="Vw9iUM8nYpeJwZ6kVrFT-1" edge="1">
          <mxGeometry relative="1" as="geometry">
            <mxPoint x="-2580" y="-1290" as="sourcePoint" />
            <mxPoint x="-2840" y="-1270" as="targetPoint" />
          </mxGeometry>
        </mxCell>
        <mxCell id="Vw9iUM8nYpeJwZ6kVrFT-5" value="1" style="resizable=0;html=1;whiteSpace=wrap;align=right;verticalAlign=bottom;fontSize=16;" parent="Vw9iUM8nYpeJwZ6kVrFT-4" connectable="0" vertex="1">
          <mxGeometry x="1" relative="1" as="geometry">
            <mxPoint x="-7" y="-11" as="offset" />
          </mxGeometry>
        </mxCell>
        <mxCell id="Vw9iUM8nYpeJwZ6kVrFT-6" value="&lt;font style=&quot;font-size: 16px;&quot;&gt;HAS&lt;/font&gt;" style="shape=rhombus;perimeter=rhombusPerimeter;whiteSpace=wrap;html=1;align=center;fontSize=16;" parent="1" vertex="1">
          <mxGeometry x="-3170" y="-910" width="230" height="100" as="geometry" />
        </mxCell>
        <mxCell id="Vw9iUM8nYpeJwZ6kVrFT-7" value="" style="shape=link;html=1;rounded=0;exitX=0;exitY=0.5;exitDx=0;exitDy=0;fontSize=16;" parent="1" source="etK1-6Y7ytb_AL0YdH5e-2" target="Vw9iUM8nYpeJwZ6kVrFT-6" edge="1">
          <mxGeometry relative="1" as="geometry">
            <mxPoint x="-2635" y="-820" as="sourcePoint" />
            <mxPoint x="-2635" y="-770" as="targetPoint" />
          </mxGeometry>
        </mxCell>
        <mxCell id="Vw9iUM8nYpeJwZ6kVrFT-8" value="N" style="resizable=0;html=1;whiteSpace=wrap;align=right;verticalAlign=bottom;fontSize=16;" parent="Vw9iUM8nYpeJwZ6kVrFT-7" connectable="0" vertex="1">
          <mxGeometry x="1" relative="1" as="geometry" />
        </mxCell>
        <mxCell id="Vw9iUM8nYpeJwZ6kVrFT-12" value="" style="endArrow=none;html=1;rounded=0;exitX=1;exitY=0.5;exitDx=0;exitDy=0;entryX=0;entryY=0.5;entryDx=0;entryDy=0;fontSize=16;" parent="1" source="X86Ci_hZSHLNlB6S4itW-14" target="Vw9iUM8nYpeJwZ6kVrFT-6" edge="1">
          <mxGeometry relative="1" as="geometry">
            <mxPoint x="-3340" y="-650" as="sourcePoint" />
            <mxPoint x="-3180" y="-650" as="targetPoint" />
          </mxGeometry>
        </mxCell>
        <mxCell id="Vw9iUM8nYpeJwZ6kVrFT-13" value="N" style="resizable=0;html=1;whiteSpace=wrap;align=right;verticalAlign=bottom;fontSize=16;" parent="Vw9iUM8nYpeJwZ6kVrFT-12" connectable="0" vertex="1">
          <mxGeometry x="1" relative="1" as="geometry" />
        </mxCell>
        <mxCell id="Vw9iUM8nYpeJwZ6kVrFT-15" value="" style="shape=link;html=1;rounded=0;fontSize=16;" parent="1" source="etK1-6Y7ytb_AL0YdH5e-2" target="Vw9iUM8nYpeJwZ6kVrFT-1" edge="1">
          <mxGeometry relative="1" as="geometry">
            <mxPoint x="-2780" y="-950" as="sourcePoint" />
            <mxPoint x="-2620" y="-950" as="targetPoint" />
          </mxGeometry>
        </mxCell>
        <mxCell id="Vw9iUM8nYpeJwZ6kVrFT-16" value="N" style="resizable=0;html=1;whiteSpace=wrap;align=right;verticalAlign=bottom;fontSize=16;" parent="Vw9iUM8nYpeJwZ6kVrFT-15" connectable="0" vertex="1">
          <mxGeometry x="1" relative="1" as="geometry">
            <mxPoint x="-15" y="31" as="offset" />
          </mxGeometry>
        </mxCell>
        <mxCell id="Vw9iUM8nYpeJwZ6kVrFT-22" value="" style="shape=link;html=1;rounded=0;fontSize=16;" parent="1" source="MzxTkG-mtZ2UojvQ5B0x-8" target="MzxTkG-mtZ2UojvQ5B0x-14" edge="1">
          <mxGeometry relative="1" as="geometry">
            <mxPoint x="-3414.9375" y="-600" as="sourcePoint" />
            <mxPoint x="-3439.047619047619" y="-508.0952380952381" as="targetPoint" />
          </mxGeometry>
        </mxCell>
        <mxCell id="Vw9iUM8nYpeJwZ6kVrFT-23" value="N" style="resizable=0;html=1;whiteSpace=wrap;align=right;verticalAlign=bottom;fontSize=16;" parent="Vw9iUM8nYpeJwZ6kVrFT-22" connectable="0" vertex="1">
          <mxGeometry x="1" relative="1" as="geometry">
            <mxPoint x="-3" y="-11" as="offset" />
          </mxGeometry>
        </mxCell>
        <mxCell id="Vw9iUM8nYpeJwZ6kVrFT-25" value="" style="endArrow=none;html=1;rounded=0;fontSize=16;" parent="1" source="X86Ci_hZSHLNlB6S4itW-16" target="MzxTkG-mtZ2UojvQ5B0x-14" edge="1">
          <mxGeometry relative="1" as="geometry">
            <mxPoint x="-3423.3600000000006" y="-360" as="sourcePoint" />
            <mxPoint x="-3445" y="-430" as="targetPoint" />
          </mxGeometry>
        </mxCell>
        <mxCell id="Vw9iUM8nYpeJwZ6kVrFT-26" value="1" style="resizable=0;html=1;whiteSpace=wrap;align=right;verticalAlign=bottom;fontSize=16;" parent="Vw9iUM8nYpeJwZ6kVrFT-25" connectable="0" vertex="1">
          <mxGeometry x="1" relative="1" as="geometry">
            <mxPoint x="-10" y="36" as="offset" />
          </mxGeometry>
        </mxCell>
        <mxCell id="Vw9iUM8nYpeJwZ6kVrFT-29" value="&lt;font style=&quot;font-size: 16px;&quot;&gt;CONTAIN&lt;/font&gt;" style="shape=rhombus;perimeter=rhombusPerimeter;whiteSpace=wrap;html=1;align=center;fontSize=16;" parent="1" vertex="1">
          <mxGeometry x="-3003.25" y="-670" width="230" height="100" as="geometry" />
        </mxCell>
        <mxCell id="X86Ci_hZSHLNlB6S4itW-15" value="&lt;font style=&quot;font-size: 16px;&quot;&gt;USER&lt;/font&gt;" style="rounded=0;whiteSpace=wrap;html=1;fontSize=16;" parent="1" vertex="1">
          <mxGeometry x="-3040" y="-140" width="150" height="60" as="geometry" />
        </mxCell>
        <mxCell id="X86Ci_hZSHLNlB6S4itW-16" value="&lt;font style=&quot;font-size: 16px;&quot;&gt;CUSTOMER&lt;/font&gt;" style="rounded=0;whiteSpace=wrap;html=1;fontSize=16;" parent="1" vertex="1">
          <mxGeometry x="-3562.5000000000005" y="-350" width="235" height="60" as="geometry" />
        </mxCell>
        <mxCell id="X86Ci_hZSHLNlB6S4itW-17" value="&lt;font style=&quot;font-size: 16px;&quot;&gt;EMPLOYEE&lt;/font&gt;" style="rounded=0;whiteSpace=wrap;html=1;fontSize=16;" parent="1" vertex="1">
          <mxGeometry x="-2868.25" y="-380" width="201.51" height="60" as="geometry" />
        </mxCell>
        <mxCell id="X86Ci_hZSHLNlB6S4itW-38" value="&lt;font style=&quot;font-size: 16px;&quot;&gt;&lt;u style=&quot;font-size: 16px;&quot;&gt;username&lt;/u&gt;&lt;/font&gt;" style="ellipse;whiteSpace=wrap;html=1;fontSize=16;" parent="1" vertex="1">
          <mxGeometry x="-3330" y="-65" width="130" height="65" as="geometry" />
        </mxCell>
        <mxCell id="Zm254rGA1JH3abEI71Ci-2" value="d" style="ellipse;whiteSpace=wrap;html=1;aspect=fixed;fontSize=16;" parent="1" vertex="1">
          <mxGeometry x="-2985" y="-260" width="40" height="40" as="geometry" />
        </mxCell>
        <mxCell id="5epYyMJ4hozOKAAbFTuN-10" value="employee_id" style="ellipse;whiteSpace=wrap;html=1;align=center;fontStyle=0;fontSize=16;" parent="1" vertex="1">
          <mxGeometry x="-2780" y="-480" width="161.51" height="80" as="geometry" />
        </mxCell>
        <mxCell id="X86Ci_hZSHLNlB6S4itW-42" value="&lt;font style=&quot;font-size: 16px;&quot;&gt;name&lt;/font&gt;" style="ellipse;whiteSpace=wrap;html=1;fontSize=16;" parent="1" vertex="1">
          <mxGeometry x="-2780" y="-10" width="120" height="60" as="geometry" />
        </mxCell>
        <mxCell id="X86Ci_hZSHLNlB6S4itW-43" value="&lt;font style=&quot;font-size: 16px;&quot;&gt;password&lt;/font&gt;" style="ellipse;whiteSpace=wrap;html=1;fontSize=16;" parent="1" vertex="1">
          <mxGeometry x="-2690" y="-90" width="120" height="60" as="geometry" />
        </mxCell>
        <mxCell id="5epYyMJ4hozOKAAbFTuN-14" value="bank_acc" style="ellipse;whiteSpace=wrap;html=1;align=center;fontSize=16;" parent="1" vertex="1">
          <mxGeometry x="-3760" y="-320" width="130" height="60" as="geometry" />
        </mxCell>
        <mxCell id="Zm254rGA1JH3abEI71Ci-7" value="" style="endArrow=none;html=1;rounded=0;fontSize=16;startSize=8;endSize=8;curved=1;" parent="1" source="X86Ci_hZSHLNlB6S4itW-15" target="X86Ci_hZSHLNlB6S4itW-38" edge="1">
          <mxGeometry width="50" height="50" relative="1" as="geometry">
            <mxPoint x="-2966" y="-224" as="sourcePoint" />
            <mxPoint x="-3100" y="-310" as="targetPoint" />
          </mxGeometry>
        </mxCell>
        <mxCell id="Zm254rGA1JH3abEI71Ci-8" value="" style="endArrow=none;html=1;rounded=0;fontSize=16;startSize=8;endSize=8;curved=1;" parent="1" source="X86Ci_hZSHLNlB6S4itW-15" target="MzxTkG-mtZ2UojvQ5B0x-1" edge="1">
          <mxGeometry width="50" height="50" relative="1" as="geometry">
            <mxPoint x="-3030" y="-70" as="sourcePoint" />
            <mxPoint x="-3053.280521174392" y="-13.621127723376958" as="targetPoint" />
          </mxGeometry>
        </mxCell>
        <mxCell id="Zm254rGA1JH3abEI71Ci-9" value="" style="endArrow=none;html=1;rounded=0;fontSize=16;startSize=8;endSize=8;curved=1;" parent="1" source="X86Ci_hZSHLNlB6S4itW-15" target="MzxTkG-mtZ2UojvQ5B0x-3" edge="1">
          <mxGeometry width="50" height="50" relative="1" as="geometry">
            <mxPoint x="-3020" y="-60" as="sourcePoint" />
            <mxPoint x="-2916.952640302849" y="-18.77763014372522" as="targetPoint" />
          </mxGeometry>
        </mxCell>
        <mxCell id="Zm254rGA1JH3abEI71Ci-4" value="" style="endArrow=none;html=1;rounded=0;fontSize=16;curved=1;shape=link;" parent="1" source="X86Ci_hZSHLNlB6S4itW-15" target="Zm254rGA1JH3abEI71Ci-2" edge="1">
          <mxGeometry width="50" height="50" relative="1" as="geometry">
            <mxPoint x="-2990" y="-130" as="sourcePoint" />
            <mxPoint x="-2940" y="-180" as="targetPoint" />
          </mxGeometry>
        </mxCell>
        <mxCell id="Zm254rGA1JH3abEI71Ci-5" value="" style="endArrow=none;html=1;rounded=0;fontSize=16;startSize=8;endSize=8;curved=1;exitX=0;exitY=0;exitDx=0;exitDy=0;" parent="1" source="Zm254rGA1JH3abEI71Ci-2" target="X86Ci_hZSHLNlB6S4itW-16" edge="1">
          <mxGeometry width="50" height="50" relative="1" as="geometry">
            <mxPoint x="-3096.41" y="-205" as="sourcePoint" />
            <mxPoint x="-3094.41" y="-275" as="targetPoint" />
          </mxGeometry>
        </mxCell>
        <mxCell id="5epYyMJ4hozOKAAbFTuN-13" value="address" style="ellipse;whiteSpace=wrap;html=1;align=center;fontSize=16;" parent="1" vertex="1">
          <mxGeometry x="-3735" y="-410" width="130" height="50" as="geometry" />
        </mxCell>
        <mxCell id="5epYyMJ4hozOKAAbFTuN-11" value="" style="endArrow=none;html=1;rounded=0;fontSize=16;" parent="1" source="X86Ci_hZSHLNlB6S4itW-17" target="5epYyMJ4hozOKAAbFTuN-10" edge="1">
          <mxGeometry relative="1" as="geometry">
            <mxPoint x="-2948" y="-256" as="sourcePoint" />
            <mxPoint x="-2660" y="-400" as="targetPoint" />
          </mxGeometry>
        </mxCell>
        <mxCell id="Zm254rGA1JH3abEI71Ci-10" value="" style="endArrow=none;html=1;rounded=0;fontSize=16;startSize=8;endSize=8;curved=1;" parent="1" source="X86Ci_hZSHLNlB6S4itW-15" target="X86Ci_hZSHLNlB6S4itW-42" edge="1">
          <mxGeometry width="50" height="50" relative="1" as="geometry">
            <mxPoint x="-3010" y="-50" as="sourcePoint" />
            <mxPoint x="-3157" y="-9" as="targetPoint" />
          </mxGeometry>
        </mxCell>
        <mxCell id="Zm254rGA1JH3abEI71Ci-11" value="" style="endArrow=none;html=1;rounded=0;fontSize=16;startSize=8;endSize=8;curved=1;" parent="1" source="X86Ci_hZSHLNlB6S4itW-15" target="X86Ci_hZSHLNlB6S4itW-43" edge="1">
          <mxGeometry width="50" height="50" relative="1" as="geometry">
            <mxPoint x="-3000" y="-40" as="sourcePoint" />
            <mxPoint x="-3147" y="1" as="targetPoint" />
          </mxGeometry>
        </mxCell>
        <mxCell id="q8tnT3m77F52UBUCL55C-3" value="" style="endArrow=none;html=1;rounded=0;fontSize=16;" parent="1" source="X86Ci_hZSHLNlB6S4itW-16" target="5epYyMJ4hozOKAAbFTuN-13" edge="1">
          <mxGeometry relative="1" as="geometry">
            <mxPoint x="-2936" y="-350" as="sourcePoint" />
            <mxPoint x="-2912" y="-390" as="targetPoint" />
          </mxGeometry>
        </mxCell>
        <mxCell id="q8tnT3m77F52UBUCL55C-4" value="" style="endArrow=none;html=1;rounded=0;fontSize=16;entryX=1;entryY=0.5;entryDx=0;entryDy=0;" parent="1" source="X86Ci_hZSHLNlB6S4itW-16" target="5epYyMJ4hozOKAAbFTuN-14" edge="1">
          <mxGeometry relative="1" as="geometry">
            <mxPoint x="-2926" y="-340" as="sourcePoint" />
            <mxPoint x="-3620.9855788346517" y="-315.2044244849876" as="targetPoint" />
          </mxGeometry>
        </mxCell>
        <mxCell id="Vw9iUM8nYpeJwZ6kVrFT-35" value="" style="shape=requiredInterface;html=1;verticalLabelPosition=bottom;sketch=0;rotation=-165;fontSize=16;" parent="1" vertex="1">
          <mxGeometry x="-3080" y="-290" width="20" height="40" as="geometry" />
        </mxCell>
        <mxCell id="Vw9iUM8nYpeJwZ6kVrFT-36" value="" style="shape=requiredInterface;html=1;verticalLabelPosition=bottom;sketch=0;rotation=-35;fontSize=16;" parent="1" vertex="1">
          <mxGeometry x="-2912.5" y="-300" width="25" height="40" as="geometry" />
        </mxCell>
        <mxCell id="Vw9iUM8nYpeJwZ6kVrFT-37" value="" style="endArrow=none;html=1;rounded=0;fontSize=16;startSize=8;endSize=8;curved=1;" parent="1" source="X86Ci_hZSHLNlB6S4itW-17" target="Zm254rGA1JH3abEI71Ci-2" edge="1">
          <mxGeometry width="50" height="50" relative="1" as="geometry">
            <mxPoint x="-6228" y="-765" as="sourcePoint" />
            <mxPoint x="-6348" y="-695" as="targetPoint" />
          </mxGeometry>
        </mxCell>
        <mxCell id="JIwol5em7WgtJgifv4zT-39" value="" style="endArrow=none;html=1;rounded=0;fontSize=16;" parent="1" source="X86Ci_hZSHLNlB6S4itW-17" target="MzxTkG-mtZ2UojvQ5B0x-16" edge="1">
          <mxGeometry relative="1" as="geometry">
            <mxPoint x="-3155" y="-370" as="sourcePoint" />
            <mxPoint x="-2345" y="-350" as="targetPoint" />
          </mxGeometry>
        </mxCell>
        <mxCell id="JIwol5em7WgtJgifv4zT-40" value="1" style="resizable=0;html=1;whiteSpace=wrap;align=right;verticalAlign=bottom;fontSize=16;" parent="JIwol5em7WgtJgifv4zT-39" connectable="0" vertex="1">
          <mxGeometry x="1" relative="1" as="geometry">
            <mxPoint x="-10" y="36" as="offset" />
          </mxGeometry>
        </mxCell>
        <mxCell id="JIwol5em7WgtJgifv4zT-41" value="" style="shape=link;html=1;rounded=0;fontSize=16;" parent="1" source="MzxTkG-mtZ2UojvQ5B0x-17" target="MzxTkG-mtZ2UojvQ5B0x-16" edge="1">
          <mxGeometry relative="1" as="geometry">
            <mxPoint x="-2000" y="-347" as="sourcePoint" />
            <mxPoint x="-2054.162839867593" y="-351.411132158506" as="targetPoint" />
          </mxGeometry>
        </mxCell>
        <mxCell id="JIwol5em7WgtJgifv4zT-42" value="N" style="resizable=0;html=1;whiteSpace=wrap;align=right;verticalAlign=bottom;fontSize=16;" parent="JIwol5em7WgtJgifv4zT-41" connectable="0" vertex="1">
          <mxGeometry x="1" relative="1" as="geometry">
            <mxPoint x="3" y="-9" as="offset" />
          </mxGeometry>
        </mxCell>
        <mxCell id="Vfx2BcKKk_G0apD7Leh3-4" value="" style="endArrow=none;html=1;rounded=0;fontSize=16;entryX=0.5;entryY=0;entryDx=0;entryDy=0;" parent="1" source="X86Ci_hZSHLNlB6S4itW-13" target="MzxTkG-mtZ2UojvQ5B0x-23" edge="1">
          <mxGeometry relative="1" as="geometry">
            <mxPoint x="-2311.75" y="-1210" as="sourcePoint" />
            <mxPoint x="-1868.1311300639654" y="-664.1364605543708" as="targetPoint" />
          </mxGeometry>
        </mxCell>
        <mxCell id="Vfx2BcKKk_G0apD7Leh3-5" value="1" style="resizable=0;html=1;whiteSpace=wrap;align=right;verticalAlign=bottom;fontSize=16;" parent="Vfx2BcKKk_G0apD7Leh3-4" connectable="0" vertex="1">
          <mxGeometry x="1" relative="1" as="geometry">
            <mxPoint x="-7" y="-11" as="offset" />
          </mxGeometry>
        </mxCell>
        <mxCell id="Vfx2BcKKk_G0apD7Leh3-7" value="&lt;font style=&quot;font-size: 16px;&quot;&gt;pu_order_time&lt;/font&gt;" style="ellipse;whiteSpace=wrap;html=1;align=center;fontSize=16;" parent="1" vertex="1">
          <mxGeometry x="-1880" y="-260" width="160" height="80" as="geometry" />
        </mxCell>
        <mxCell id="Vfx2BcKKk_G0apD7Leh3-9" value="&lt;span style=&quot;font-size: 16px;&quot;&gt;pu_order_status&lt;/span&gt;" style="ellipse;whiteSpace=wrap;html=1;align=center;fontSize=16;" parent="1" vertex="1">
          <mxGeometry x="-1730" y="-300" width="160" height="80" as="geometry" />
        </mxCell>
        <mxCell id="Vfx2BcKKk_G0apD7Leh3-10" value="" style="endArrow=none;html=1;rounded=0;fontSize=16;" parent="1" source="MzxTkG-mtZ2UojvQ5B0x-15" target="MzxTkG-mtZ2UojvQ5B0x-17" edge="1">
          <mxGeometry relative="1" as="geometry">
            <mxPoint x="-1403.787875462086" y="-195.61093494616762" as="sourcePoint" />
            <mxPoint x="-1893.2000000000003" y="-320" as="targetPoint" />
          </mxGeometry>
        </mxCell>
        <mxCell id="Vfx2BcKKk_G0apD7Leh3-11" value="" style="endArrow=none;html=1;rounded=0;fontSize=16;" parent="1" source="Vfx2BcKKk_G0apD7Leh3-7" target="MzxTkG-mtZ2UojvQ5B0x-17" edge="1">
          <mxGeometry relative="1" as="geometry">
            <mxPoint x="-1398" y="-213" as="sourcePoint" />
            <mxPoint x="-1866.5" y="-380" as="targetPoint" />
          </mxGeometry>
        </mxCell>
        <mxCell id="Vfx2BcKKk_G0apD7Leh3-13" value="" style="endArrow=none;html=1;rounded=0;fontSize=16;" parent="1" source="Vfx2BcKKk_G0apD7Leh3-9" target="MzxTkG-mtZ2UojvQ5B0x-17" edge="1">
          <mxGeometry relative="1" as="geometry">
            <mxPoint x="-1012" y="-186" as="sourcePoint" />
            <mxPoint x="-1733" y="-329" as="targetPoint" />
          </mxGeometry>
        </mxCell>
        <mxCell id="KTHh3J1ZB5q0eNKwWqRB-16" value="" style="endArrow=none;html=1;rounded=0;fontSize=16;" parent="1" source="MzxTkG-mtZ2UojvQ5B0x-8" target="MzxTkG-mtZ2UojvQ5B0x-7" edge="1">
          <mxGeometry relative="1" as="geometry">
            <mxPoint x="-3423.3333333333335" y="-660" as="sourcePoint" />
            <mxPoint x="-3454" y="-690" as="targetPoint" />
          </mxGeometry>
        </mxCell>
        <mxCell id="Vfx2BcKKk_G0apD7Leh3-26" value="" style="shape=link;html=1;rounded=0;fontSize=16;" parent="1" source="etK1-6Y7ytb_AL0YdH5e-2" target="MzxTkG-mtZ2UojvQ5B0x-18" edge="1">
          <mxGeometry relative="1" as="geometry">
            <mxPoint x="-2120" y="-690" as="sourcePoint" />
            <mxPoint x="-2342.4022346368715" y="-640.7262569832401" as="targetPoint" />
          </mxGeometry>
        </mxCell>
        <mxCell id="Vfx2BcKKk_G0apD7Leh3-27" value="N" style="resizable=0;html=1;whiteSpace=wrap;align=right;verticalAlign=bottom;fontSize=16;" parent="Vfx2BcKKk_G0apD7Leh3-26" connectable="0" vertex="1">
          <mxGeometry x="1" relative="1" as="geometry" />
        </mxCell>
        <mxCell id="Vfx2BcKKk_G0apD7Leh3-35" value="" style="shape=link;html=1;rounded=0;fontSize=16;" parent="1" source="MzxTkG-mtZ2UojvQ5B0x-17" target="MzxTkG-mtZ2UojvQ5B0x-23" edge="1">
          <mxGeometry relative="1" as="geometry">
            <mxPoint x="-1866.5" y="-380" as="sourcePoint" />
            <mxPoint x="-1867.0793573515093" y="-575.306718597858" as="targetPoint" />
          </mxGeometry>
        </mxCell>
        <mxCell id="Vfx2BcKKk_G0apD7Leh3-36" value="N" style="resizable=0;html=1;whiteSpace=wrap;align=right;verticalAlign=bottom;fontSize=16;" parent="Vfx2BcKKk_G0apD7Leh3-35" connectable="0" vertex="1">
          <mxGeometry x="1" relative="1" as="geometry">
            <mxPoint x="-13" y="30" as="offset" />
          </mxGeometry>
        </mxCell>
        <mxCell id="Vfx2BcKKk_G0apD7Leh3-53" value="N" style="shape=link;html=1;rounded=0;fontSize=16;width=4.117647058823529;" parent="1" source="MzxTkG-mtZ2UojvQ5B0x-17" target="MzxTkG-mtZ2UojvQ5B0x-18" edge="1">
          <mxGeometry x="0.8261" y="-20" relative="1" as="geometry">
            <mxPoint x="-2000" y="-380" as="sourcePoint" />
            <mxPoint x="-2252.794411177645" y="-581.4570858283437" as="targetPoint" />
            <mxPoint as="offset" />
          </mxGeometry>
        </mxCell>
        <mxCell id="Vfx2BcKKk_G0apD7Leh3-54" value="1" style="resizable=0;html=1;whiteSpace=wrap;align=right;verticalAlign=bottom;fontSize=16;" parent="Vfx2BcKKk_G0apD7Leh3-53" connectable="0" vertex="1">
          <mxGeometry x="1" relative="1" as="geometry" />
        </mxCell>
        <mxCell id="MzxTkG-mtZ2UojvQ5B0x-1" value="phone_number" style="ellipse;whiteSpace=wrap;html=1;fontSize=16;" parent="1" vertex="1">
          <mxGeometry x="-3130" y="-10" width="120" height="60" as="geometry" />
        </mxCell>
        <mxCell id="MzxTkG-mtZ2UojvQ5B0x-3" value="email" style="ellipse;whiteSpace=wrap;html=1;fontSize=16;" parent="1" vertex="1">
          <mxGeometry x="-2974.26" width="120" height="60" as="geometry" />
        </mxCell>
        <mxCell id="MzxTkG-mtZ2UojvQ5B0x-7" value="order_id" style="ellipse;whiteSpace=wrap;html=1;fontSize=16;fontStyle=4" parent="1" vertex="1">
          <mxGeometry x="-3600" y="-760" width="120" height="60" as="geometry" />
        </mxCell>
        <mxCell id="MzxTkG-mtZ2UojvQ5B0x-8" value="&lt;font style=&quot;font-size: 16px;&quot;&gt;ORDER&lt;/font&gt;" style="rounded=0;whiteSpace=wrap;html=1;" parent="1" vertex="1">
          <mxGeometry x="-3505" y="-650" width="120" height="60" as="geometry" />
        </mxCell>
        <mxCell id="MzxTkG-mtZ2UojvQ5B0x-10" value="&lt;font style=&quot;font-size: 16px;&quot;&gt;N&lt;/font&gt;" style="endArrow=none;html=1;rounded=0;" parent="1" source="Vw9iUM8nYpeJwZ6kVrFT-29" target="etK1-6Y7ytb_AL0YdH5e-2" edge="1">
          <mxGeometry x="-0.8401" y="16" width="50" height="50" relative="1" as="geometry">
            <mxPoint x="-3120" y="-610" as="sourcePoint" />
            <mxPoint x="-3070" y="-660" as="targetPoint" />
            <mxPoint as="offset" />
          </mxGeometry>
        </mxCell>
        <mxCell id="MzxTkG-mtZ2UojvQ5B0x-11" value="N" style="shape=link;html=1;rounded=0;fontSize=16;" parent="1" source="MzxTkG-mtZ2UojvQ5B0x-8" target="Vw9iUM8nYpeJwZ6kVrFT-29" edge="1">
          <mxGeometry x="0.9344" y="18" width="100" relative="1" as="geometry">
            <mxPoint x="-3140" y="-630" as="sourcePoint" />
            <mxPoint x="-3040" y="-630" as="targetPoint" />
            <mxPoint as="offset" />
          </mxGeometry>
        </mxCell>
        <mxCell id="MzxTkG-mtZ2UojvQ5B0x-12" value="order_quantity" style="ellipse;whiteSpace=wrap;html=1;fontSize=16;" parent="1" vertex="1">
          <mxGeometry x="-3025" y="-520" width="120" height="60" as="geometry" />
        </mxCell>
        <mxCell id="MzxTkG-mtZ2UojvQ5B0x-13" value="" style="endArrow=none;html=1;rounded=0;" parent="1" source="MzxTkG-mtZ2UojvQ5B0x-12" target="Vw9iUM8nYpeJwZ6kVrFT-29" edge="1">
          <mxGeometry width="50" height="50" relative="1" as="geometry">
            <mxPoint x="-3060" y="-620" as="sourcePoint" />
            <mxPoint x="-3010" y="-670" as="targetPoint" />
          </mxGeometry>
        </mxCell>
        <mxCell id="MzxTkG-mtZ2UojvQ5B0x-14" value="MAKE_ORDER" style="shape=rhombus;perimeter=rhombusPerimeter;whiteSpace=wrap;html=1;align=center;fontSize=16;" parent="1" vertex="1">
          <mxGeometry x="-3557.5" y="-540" width="230" height="100" as="geometry" />
        </mxCell>
        <mxCell id="MzxTkG-mtZ2UojvQ5B0x-15" value="pu_order_id" style="ellipse;whiteSpace=wrap;html=1;align=center;fontSize=16;fontStyle=4" parent="1" vertex="1">
          <mxGeometry x="-2110" y="-260" width="160" height="80" as="geometry" />
        </mxCell>
        <mxCell id="MzxTkG-mtZ2UojvQ5B0x-16" value="&lt;font style=&quot;font-size: 16px;&quot;&gt;PLACE_ORDER&lt;/font&gt;" style="rhombus;whiteSpace=wrap;html=1;" parent="1" vertex="1">
          <mxGeometry x="-2371.75" y="-380" width="171.75" height="80" as="geometry" />
        </mxCell>
        <mxCell id="MzxTkG-mtZ2UojvQ5B0x-17" value="ORDER_TO_PUBLISHER" style="rounded=0;whiteSpace=wrap;html=1;fontSize=17;" parent="1" vertex="1">
          <mxGeometry x="-1995" y="-380" width="240" height="80" as="geometry" />
        </mxCell>
        <mxCell id="MzxTkG-mtZ2UojvQ5B0x-18" value="CONTAIN" style="shape=rhombus;perimeter=rhombusPerimeter;whiteSpace=wrap;html=1;align=center;fontSize=16;" parent="1" vertex="1">
          <mxGeometry x="-2410" y="-670" width="230" height="100" as="geometry" />
        </mxCell>
        <mxCell id="MzxTkG-mtZ2UojvQ5B0x-19" value="pu_order_quantity" style="ellipse;whiteSpace=wrap;html=1;fontSize=16;" parent="1" vertex="1">
          <mxGeometry x="-2490" y="-570" width="170" height="60" as="geometry" />
        </mxCell>
        <mxCell id="MzxTkG-mtZ2UojvQ5B0x-22" value="" style="endArrow=none;html=1;rounded=0;" parent="1" source="MzxTkG-mtZ2UojvQ5B0x-19" target="MzxTkG-mtZ2UojvQ5B0x-18" edge="1">
          <mxGeometry width="50" height="50" relative="1" as="geometry">
            <mxPoint x="-2360" y="-560" as="sourcePoint" />
            <mxPoint x="-2310" y="-610" as="targetPoint" />
          </mxGeometry>
        </mxCell>
        <mxCell id="MzxTkG-mtZ2UojvQ5B0x-23" value="SEND_TO" style="rhombus;whiteSpace=wrap;html=1;fontFamily=Helvetica;fontSize=16;fontColor=default;labelBackgroundColor=default;" parent="1" vertex="1">
          <mxGeometry x="-1942.5" y="-660" width="135" height="80" as="geometry" />
        </mxCell>
        <mxCell id="MzxTkG-mtZ2UojvQ5B0x-25" value="&lt;span style=&quot;font-size: 16px;&quot;&gt;pu_address&lt;/span&gt;" style="ellipse;whiteSpace=wrap;html=1;fontSize=16;" parent="1" vertex="1">
          <mxGeometry x="-1720" y="-870" width="180" height="80" as="geometry" />
        </mxCell>
        <mxCell id="MzxTkG-mtZ2UojvQ5B0x-28" value="genre_name" style="ellipse;whiteSpace=wrap;html=1;fontSize=16;" parent="1" vertex="1">
          <mxGeometry x="-3460" y="-1010" width="150" height="60" as="geometry" />
        </mxCell>
        <mxCell id="5_mYyx_vgy--7tU4FJF3-1" value="&lt;span style=&quot;font-size: 16px;&quot;&gt;&lt;span style=&quot;font-size: 16px;&quot;&gt;order_status&lt;/span&gt;&lt;/span&gt;" style="ellipse;whiteSpace=wrap;html=1;fontSize=16;" parent="1" vertex="1">
          <mxGeometry x="-3447.5" y="-760" width="105" height="60" as="geometry" />
        </mxCell>
        <mxCell id="5_mYyx_vgy--7tU4FJF3-2" value="" style="endArrow=none;html=1;rounded=0;fontSize=16;entryX=0.5;entryY=1;entryDx=0;entryDy=0;exitX=0.75;exitY=0;exitDx=0;exitDy=0;" parent="1" source="MzxTkG-mtZ2UojvQ5B0x-8" target="5_mYyx_vgy--7tU4FJF3-1" edge="1">
          <mxGeometry relative="1" as="geometry">
            <mxPoint x="-3461" y="-640" as="sourcePoint" />
            <mxPoint x="-3506" y="-692" as="targetPoint" />
          </mxGeometry>
        </mxCell>
      </root>
    </mxGraphModel>
  </diagram>
</mxfile>
